# xmcd
#
# Track frame offsets:
#	150
#	22340
#	42715
#
# Disc length: 907 seconds
#
# Revision: 0
# Processed by: cddbd v1.5.2PL0 Copyright (c) Steve Scherf et al.
# Submitted via: audiograbber 1.83.01
#
DISCID=28038903
DTITLE=Aikakone - Matkustanut Oon [CDM)
DYEAR=1996
DGENRE=Dance
TTITLE0=Matkustanut Oon (Captain-Mix)
TTITLE1=Matkustanut Oon (Albumiversio)
TTITLE2=Matkustanut Oon (Kapteeni Aika-Mix)
EXTD=TR.
EXTT0=
EXTT1=
EXTT2=
PLAYORDER=
